<svg width="804" height="804" viewBox="0 0 804 804" fill="none" xmlns="http://www.w3.org/2000/svg">
<path d="M272.078 126.543C277.367 123.97 284.674 121.086 288.304 120.136C291.934 119.187 299.65 118.37 305.431 118.333C311.213 118.285 318.785 118.838 322.258 119.559C325.732 120.281 332.895 122.937 338.184 125.473C344.049 128.273 350.804 132.805 355.491 137.083C359.722 140.93 365.191 147.071 367.631 150.701C370.071 154.331 373.46 160.833 375.143 165.124C376.838 169.427 378.821 176.855 379.542 181.651C380.347 187.035 380.864 212.973 380.9 308.754L383.881 313.862C385.9 317.311 388.52 319.739 391.97 321.362C394.782 322.672 399.241 323.742 401.886 323.742C404.53 323.742 408.989 322.672 411.801 321.362C415.287 319.727 417.847 317.348 422.763 308.754L423.604 180.148L426.837 170.533C428.616 165.244 432.114 157.468 434.602 153.249C437.102 149.031 442.703 142.276 447.054 138.225C451.549 134.043 458.809 128.934 463.881 126.374C468.784 123.898 476.044 121.062 480.01 120.052C483.977 119.055 491.825 118.237 497.438 118.237C503.051 118.237 510.9 119.055 514.866 120.052C518.832 121.062 526.537 124.043 531.993 126.675C539.638 130.377 543.868 133.466 550.431 140.184C556.2 146.086 560.419 151.819 563.472 157.913C565.96 162.877 568.965 171.254 570.142 176.542C571.765 183.742 572.126 188.874 571.609 196.975C571.224 202.925 569.878 210.773 568.604 214.403C567.33 218.033 565.191 223.177 563.832 225.821C562.486 228.465 559.025 233.79 556.152 237.66C552.234 242.937 540.671 252.864 510.058 277.227C487.583 295.112 465.78 312.504 461.621 315.869C456.657 319.872 453.172 323.838 451.525 327.384C449.566 331.578 449.181 334.006 449.806 338.201C450.251 341.182 451.849 345.509 453.364 347.816C454.878 350.124 458.52 353.237 461.453 354.715C464.385 356.194 468.821 357.408 471.296 357.42C473.772 357.42 477.282 356.758 479.097 355.929C480.912 355.1 503.76 337.432 529.878 316.662C565.623 288.249 579.445 277.949 585.779 275.052C590.407 272.925 597.174 270.509 600.803 269.667C604.433 268.826 612.282 268.165 618.231 268.189C626.452 268.237 631.356 268.994 638.664 271.338C643.952 273.045 651.717 276.482 655.924 278.97C660.13 281.47 666.921 287.023 671.008 291.326C675.599 296.17 680.118 302.564 682.871 308.153C685.323 313.117 688.195 320.677 689.277 324.98C690.743 330.821 691.08 336.122 690.623 346.013C690.19 355.533 689.241 361.422 687.246 367.047C685.719 371.35 681.945 378.645 678.856 383.273C675.767 387.9 670.335 394.198 666.777 397.263C663.207 400.34 656.789 404.751 652.486 407.095C648.183 409.427 641.428 412.299 637.462 413.465C632.558 414.919 626.224 415.593 617.63 415.593C606.08 415.593 601.404 414.751 562.342 405.653C538.88 400.184 512.51 394.138 503.748 392.203C490.671 389.307 486.958 388.898 483.015 389.883C480.371 390.544 476.284 392.84 473.929 394.992C471.585 397.143 469.073 400.797 468.364 403.105C467.643 405.412 467.138 409.475 467.222 412.119C467.306 414.763 468.592 419.066 470.083 421.674C471.573 424.282 474.698 427.504 477.006 428.838C479.482 430.256 505.371 436.818 540.106 444.811C581.416 454.33 601.152 459.415 606.212 461.83C610.178 463.729 616.597 467.648 620.467 470.544C624.337 473.453 629.962 479.066 632.955 483.032C635.96 486.999 640.022 493.753 641.981 498.056C643.94 502.359 646.356 509.655 647.33 514.282C648.496 519.763 648.904 526.253 648.52 532.912C648.135 539.462 646.801 546.362 644.782 552.143C643.063 557.107 639.902 564.018 637.75 567.527C635.611 571.025 630.876 576.914 627.246 580.616C623.616 584.318 617.931 589.054 614.626 591.145C611.32 593.224 605.635 596.109 602.005 597.551C598.376 598.982 592.967 600.7 589.986 601.361C587.005 602.022 580.251 602.587 574.962 602.611C569.037 602.635 561.657 601.698 555.731 600.172C550.443 598.813 542.871 595.977 538.905 593.861C534.734 591.65 527.763 586.097 522.378 580.7C513.436 571.746 512.558 570.34 500.587 545.833C493.712 531.782 481.765 507.047 474.037 490.845C466.296 474.643 458.797 458.994 457.366 456.061C455.936 453.117 451.789 447.491 448.16 443.537C444.53 439.595 438.845 434.643 435.539 432.528C432.234 430.424 426.285 427.504 422.318 426.049C418.352 424.583 411.056 423.092 406.092 422.732C399.842 422.287 394.494 422.696 388.664 424.078C384.037 425.184 376.513 428.081 371.958 430.52C366.561 433.405 361.104 437.708 356.333 442.828C349.866 449.787 347.39 454.09 335.251 479.487C327.691 495.316 314.518 522.6 305.972 540.124C290.648 571.578 290.335 572.083 281.261 581.025C276.129 586.097 268.905 591.758 264.867 593.897C260.9 595.989 253.328 598.813 248.04 600.172C242.15 601.686 234.698 602.635 228.809 602.623C223.52 602.599 215.816 601.782 211.682 600.809C207.547 599.823 200.251 597.047 195.456 594.643C189.999 591.902 183.665 587.299 178.509 582.323C173.989 577.948 168.208 570.869 165.672 566.566C163.136 562.263 159.975 555.508 158.653 551.542C157.319 547.575 155.864 540.003 155.408 534.715C154.795 527.648 155.119 522.395 156.622 514.883C157.751 509.27 160.203 501.422 162.078 497.455C163.941 493.489 168.04 486.999 171.189 483.032C174.326 479.066 179.386 473.766 182.415 471.266C185.456 468.753 191.73 464.835 196.357 462.552C202.823 459.354 213.821 456.29 243.833 449.33C265.311 444.342 291.549 438.321 302.126 435.965C312.703 433.597 323.388 430.653 325.864 429.403C328.34 428.165 331.393 425.653 332.643 423.838C333.893 422.023 335.564 418.369 336.357 415.725C337.499 411.963 337.499 409.739 336.357 405.508C335.467 402.215 333.196 398.393 330.527 395.737C327.943 393.141 324.097 390.821 321.056 390.028C316.357 388.79 311.225 389.751 257.355 401.975C225.131 409.282 195.516 415.568 191.549 415.953C187.583 416.326 180.275 415.965 175.323 415.148C170.372 414.331 162.523 412.095 157.896 410.184C153.268 408.261 146.441 404.403 142.727 401.59C139.013 398.79 133.412 393.513 130.299 389.883C127.186 386.254 122.787 379.619 120.528 375.16C118.28 370.701 115.564 363.393 114.494 358.934C113.088 353.021 112.727 347.396 113.172 338.201C113.605 329.126 114.566 323.381 116.61 317.768C118.172 313.465 121.345 306.795 123.653 302.924C125.961 299.066 131.501 292.432 135.961 288.201C141.634 282.828 147.054 279.102 153.989 275.833C159.446 273.273 166.61 270.509 169.915 269.715C173.22 268.91 181.201 268.309 187.643 268.369C196.597 268.465 201.561 269.199 208.677 271.482C213.797 273.129 220.696 276.05 224.001 277.985C227.307 279.908 238.689 288.429 249.29 296.927C259.891 305.412 280.179 321.638 294.362 332.984C308.544 344.331 322.186 354.475 324.662 355.521C327.138 356.578 331.056 357.432 333.376 357.432C335.696 357.432 339.746 356.35 342.39 355.028C345.035 353.706 348.568 350.593 350.251 348.117C351.934 345.641 353.64 341.182 354.037 338.201C354.59 334.09 354.169 331.494 352.246 327.384C350.6 323.85 347.102 319.86 342.15 315.845C337.991 312.48 317.006 295.713 295.54 278.586C274.073 261.47 254.326 245.148 251.669 242.336C249.013 239.523 244.782 233.838 242.282 229.715C239.782 225.593 236.633 218.706 235.299 214.403C233.953 210.1 232.571 201.999 232.222 196.374C231.778 189.427 232.174 183.273 233.46 177.143C234.53 172.071 237.607 163.694 240.492 157.997C244.242 150.629 247.919 145.617 254.049 139.547C260.131 133.538 265.131 129.92 272.078 126.543Z" fill="url(#paint0_linear_961_33)"/>
<path d="M375.299 496.253C385.035 476.157 392.847 461.506 394.71 459.895C396.501 458.345 399.458 457.179 401.657 457.155C403.881 457.131 406.97 458.261 409.001 459.859C411.008 461.434 414.422 466.698 416.982 472.215C419.446 477.503 426.982 493.189 433.724 507.071C440.467 520.953 451.885 544.619 459.097 559.655C466.297 574.691 473.003 590.376 473.989 594.51C474.962 598.645 475.78 606.626 475.792 612.239C475.804 617.852 474.998 625.7 473.989 629.667C472.979 633.633 470.179 640.941 467.751 645.893C464.518 652.515 460.936 657.299 454.253 663.933C449.025 669.114 442.09 674.57 437.943 676.734C433.977 678.813 426.946 681.662 422.318 683.056C416.092 684.943 410.768 685.592 401.886 685.568C395.275 685.544 386.886 684.739 383.256 683.765C379.626 682.804 372.583 680.003 367.631 677.551C361.08 674.318 356.14 670.616 349.59 664.005C343.172 657.539 339.253 652.299 336.068 645.893C333.604 640.941 330.78 633.633 329.77 629.667C328.773 625.7 327.967 617.852 327.979 612.239C327.991 606.626 328.809 598.645 329.782 594.51C330.768 590.376 337.751 574.15 345.287 558.453C352.835 542.756 366.345 514.763 375.299 496.253Z" fill="url(#paint1_linear_961_33)"/>
<defs>
<linearGradient id="paint0_linear_961_33" x1="112.993" y1="118.237" x2="750.157" y2="608.431" gradientUnits="userSpaceOnUse">
<stop stop-color="#8806C0"/>
<stop offset="1" stop-color="#40035A"/>
</linearGradient>
<linearGradient id="paint1_linear_961_33" x1="112.993" y1="118.237" x2="750.157" y2="608.431" gradientUnits="userSpaceOnUse">
<stop stop-color="#8806C0"/>
<stop offset="1" stop-color="#40035A"/>
</linearGradient>
</defs>
</svg>
