<svg width="804" height="804" viewBox="0 0 804 804" fill="none" xmlns="http://www.w3.org/2000/svg">
<circle cx="401.903" cy="401.903" r="401.903" fill="white"/>
<path d="M281.899 147.372C286.787 144.994 293.542 142.328 296.897 141.45C300.252 140.573 307.385 139.817 312.729 139.784C318.073 139.739 325.072 140.25 328.283 140.917C331.494 141.584 338.115 144.039 343.004 146.383C348.426 148.972 354.669 153.16 359.002 157.115C362.913 160.671 367.968 166.348 370.223 169.703C372.479 173.058 375.612 179.069 377.167 183.035C378.734 187.012 380.567 193.878 381.233 198.311C381.978 203.289 382.456 227.264 382.489 315.8L385.244 320.522C387.111 323.71 389.533 325.954 392.721 327.454C395.321 328.665 399.443 329.654 401.887 329.654C404.331 329.654 408.453 328.665 411.053 327.454C414.275 325.943 416.641 323.743 421.185 315.8L421.963 196.923L424.951 188.035C426.596 183.146 429.829 175.958 432.128 172.058C434.439 168.159 439.617 161.915 443.638 158.171C447.794 154.305 454.504 149.583 459.192 147.216C463.725 144.928 470.436 142.306 474.102 141.372C477.768 140.45 485.023 139.695 490.212 139.695C495.4 139.695 502.655 140.45 506.321 141.372C509.988 142.306 517.109 145.061 522.153 147.494C529.219 150.916 533.13 153.771 539.196 159.982C544.529 165.437 548.428 170.736 551.25 176.369C553.55 180.957 556.327 188.701 557.416 193.59C558.916 200.244 559.249 204.988 558.772 212.477C558.416 217.976 557.172 225.231 555.994 228.586C554.816 231.941 552.839 236.696 551.583 239.141C550.339 241.585 547.139 246.507 544.484 250.084C540.862 254.961 530.174 264.138 501.877 286.658C481.101 303.19 460.948 319.266 457.104 322.377C452.515 326.077 449.293 329.743 447.771 333.02C445.96 336.898 445.605 339.142 446.183 343.019C446.594 345.775 448.071 349.774 449.471 351.907C450.871 354.041 454.237 356.918 456.948 358.285C459.659 359.651 463.759 360.773 466.047 360.784C468.336 360.784 471.58 360.173 473.258 359.407C474.935 358.64 496.056 342.308 520.198 323.11C553.239 296.846 566.015 287.325 571.87 284.647C576.148 282.681 582.403 280.448 585.758 279.67C589.113 278.892 596.368 278.281 601.867 278.304C609.467 278.348 614 279.048 620.755 281.214C625.643 282.792 632.82 285.969 636.708 288.269C640.597 290.58 646.874 295.713 650.652 299.69C654.896 304.168 659.073 310.078 661.617 315.244C663.884 319.833 666.539 326.821 667.539 330.798C668.894 336.198 669.205 341.097 668.783 350.241C668.383 359.04 667.505 364.484 665.661 369.683C664.25 373.661 660.762 380.405 657.906 384.682C655.051 388.959 650.029 394.781 646.741 397.614C643.441 400.458 637.508 404.536 633.531 406.702C629.554 408.857 623.31 411.513 619.643 412.59C615.111 413.935 609.256 414.557 601.312 414.557C590.635 414.557 586.313 413.779 550.206 405.369C528.519 400.314 504.144 394.725 496.044 392.937C483.957 390.259 480.524 389.881 476.88 390.793C474.435 391.404 470.658 393.526 468.48 395.514C466.314 397.503 463.992 400.88 463.337 403.014C462.67 405.147 462.203 408.902 462.281 411.346C462.359 413.79 463.548 417.768 464.925 420.179C466.303 422.589 469.192 425.567 471.325 426.8C473.613 428.111 497.544 434.177 529.652 441.565C567.837 450.364 586.08 455.064 590.757 457.297C594.424 459.053 600.356 462.674 603.934 465.352C607.511 468.041 612.711 473.229 615.477 476.895C618.255 480.562 622.01 486.805 623.821 490.783C625.632 494.76 627.865 501.504 628.765 505.781C629.842 510.847 630.22 516.847 629.865 523.002C629.509 529.057 628.276 535.434 626.41 540.778C624.821 545.366 621.899 551.755 619.91 554.999C617.933 558.232 613.555 563.676 610.2 567.098C606.845 570.519 601.59 574.897 598.534 576.83C595.479 578.752 590.224 581.418 586.869 582.752C583.514 584.074 578.514 585.662 575.759 586.273C573.004 586.884 566.76 587.407 561.871 587.429C556.394 587.451 549.573 586.585 544.095 585.174C539.207 583.918 532.208 581.296 528.541 579.341C524.686 577.297 518.242 572.164 513.265 567.175C504.999 558.898 504.188 557.598 493.122 534.945C486.768 521.957 475.724 499.093 468.58 484.117C461.426 469.14 454.493 454.675 453.171 451.964C451.849 449.242 448.016 444.043 444.661 440.388C441.305 436.744 436.05 432.166 432.995 430.211C429.94 428.267 424.44 425.567 420.774 424.223C417.108 422.867 410.364 421.49 405.775 421.156C399.998 420.745 395.054 421.123 389.666 422.401C385.389 423.423 378.434 426.1 374.223 428.356C369.235 431.022 364.191 434.999 359.78 439.732C353.803 446.165 351.514 450.142 340.293 473.618C333.305 488.25 321.128 513.469 313.229 529.668C299.064 558.743 298.775 559.209 290.387 567.475C285.643 572.164 278.966 577.397 275.233 579.374C271.566 581.307 264.567 583.918 259.679 585.174C254.235 586.573 247.346 587.451 241.903 587.44C237.014 587.418 229.893 586.662 226.071 585.762C222.249 584.851 215.505 582.285 211.072 580.063C206.028 577.53 200.173 573.275 195.407 568.675C191.23 564.631 185.886 558.087 183.542 554.11C181.197 550.133 178.275 543.889 177.053 540.222C175.82 536.556 174.476 529.557 174.054 524.668C173.487 518.136 173.787 513.281 175.176 506.337C176.22 501.148 178.487 493.894 180.22 490.227C181.942 486.561 185.73 480.562 188.641 476.895C191.541 473.229 196.218 468.329 199.018 466.018C201.829 463.697 207.628 460.075 211.906 457.964C217.883 455.008 228.048 452.175 255.79 445.743C275.644 441.132 299.897 435.566 309.674 433.388C319.451 431.2 329.327 428.478 331.616 427.322C333.905 426.178 336.727 423.856 337.882 422.178C339.038 420.501 340.582 417.123 341.315 414.679C342.371 411.202 342.371 409.146 341.315 405.236C340.493 402.191 338.393 398.658 335.927 396.203C333.538 393.803 329.983 391.659 327.172 390.926C322.828 389.782 318.084 390.67 268.289 401.969C238.503 408.724 211.128 414.535 207.462 414.89C203.795 415.235 197.04 414.901 192.463 414.146C187.886 413.39 180.631 411.324 176.353 409.557C172.076 407.78 165.766 404.213 162.333 401.614C158.9 399.025 153.722 394.148 150.845 390.793C147.967 387.437 143.901 381.305 141.812 377.183C139.735 373.061 137.224 366.306 136.235 362.184C134.935 356.718 134.602 351.519 135.013 343.019C135.413 334.631 136.302 329.321 138.19 324.132C139.635 320.155 142.568 313.989 144.701 310.411C146.834 306.845 151.956 300.712 156.078 296.802C161.322 291.836 166.332 288.391 172.743 285.369C177.787 283.003 184.408 280.448 187.463 279.714C190.519 278.97 197.896 278.415 203.851 278.47C212.128 278.559 216.716 279.237 223.293 281.348C228.026 282.87 234.403 285.569 237.459 287.358C240.514 289.136 251.035 297.013 260.834 304.868C270.633 312.711 289.387 327.71 302.497 338.198C315.607 348.686 328.216 358.062 330.505 359.029C332.794 360.007 336.416 360.795 338.56 360.795C340.704 360.795 344.448 359.796 346.892 358.573C349.337 357.351 352.603 354.474 354.158 352.185C355.714 349.896 357.291 345.775 357.658 343.019C358.169 339.22 357.78 336.82 356.003 333.02C354.48 329.754 351.247 326.066 346.67 322.355C342.826 319.244 323.428 303.745 303.585 287.914C283.743 272.093 265.489 257.006 263.034 254.406C260.579 251.806 256.668 246.551 254.357 242.74C252.046 238.93 249.135 232.564 247.902 228.586C246.658 224.609 245.38 217.121 245.058 211.921C244.647 205.5 245.013 199.811 246.202 194.145C247.191 189.457 250.035 181.713 252.702 176.447C256.168 169.636 259.568 165.003 265.234 159.393C270.855 153.838 275.477 150.494 281.899 147.372Z" fill="url(#paint0_linear_979_68)"/>
<path d="M377.312 489.116C386.311 470.54 393.532 456.997 395.254 455.508C396.91 454.075 399.643 452.998 401.676 452.975C403.731 452.953 406.587 453.997 408.464 455.475C410.319 456.931 413.475 461.797 415.841 466.896C418.119 471.785 425.085 486.283 431.317 499.115C437.55 511.947 448.105 533.823 454.771 547.722C461.426 561.62 467.625 576.119 468.536 579.941C469.436 583.763 470.191 591.14 470.203 596.328C470.214 601.516 469.469 608.771 468.536 612.438C467.603 616.104 465.014 622.859 462.77 627.436C459.781 633.558 456.471 637.979 450.293 644.112C445.461 648.901 439.05 653.945 435.217 655.944C431.551 657.866 425.051 660.5 420.774 661.788C415.019 663.533 410.097 664.132 401.887 664.11C395.776 664.088 388.022 663.344 384.666 662.444C381.311 661.555 374.801 658.966 370.223 656.7C364.168 653.711 359.602 650.289 353.547 644.179C347.614 638.202 343.993 633.358 341.048 627.436C338.771 622.859 336.16 616.104 335.227 612.438C334.305 608.771 333.56 601.516 333.571 596.328C333.583 591.14 334.338 583.763 335.238 579.941C336.149 576.119 342.604 561.12 349.57 546.611C356.547 532.101 369.035 506.226 377.312 489.116Z" fill="url(#paint1_linear_979_68)"/>
<defs>
<linearGradient id="paint0_linear_979_68" x1="134.847" y1="139.695" x2="723.814" y2="592.809" gradientUnits="userSpaceOnUse">
<stop stop-color="#8806C0"/>
<stop offset="1" stop-color="#40035A"/>
</linearGradient>
<linearGradient id="paint1_linear_979_68" x1="134.847" y1="139.695" x2="723.814" y2="592.809" gradientUnits="userSpaceOnUse">
<stop stop-color="#8806C0"/>
<stop offset="1" stop-color="#40035A"/>
</linearGradient>
</defs>
</svg>
