<svg width="804" height="804" viewBox="0 0 804 804" fill="none" xmlns="http://www.w3.org/2000/svg">
<circle cx="401.903" cy="401.903" r="401.903" fill="#1C1C1C"/>
<path d="M272.078 126.542C277.367 123.97 284.674 121.085 288.304 120.136C291.934 119.186 299.65 118.369 305.431 118.333C311.213 118.285 318.785 118.838 322.258 119.559C325.732 120.28 332.895 122.936 338.184 125.472C344.049 128.273 350.804 132.804 355.491 137.083C359.722 140.929 365.191 147.071 367.631 150.701C370.071 154.331 373.46 160.833 375.143 165.124C376.837 169.427 378.821 176.854 379.542 181.65C380.347 187.035 380.864 212.972 380.9 308.753L383.881 313.861C385.9 317.311 388.52 319.739 391.97 321.361C394.782 322.672 399.241 323.741 401.886 323.741C404.53 323.741 408.989 322.672 411.801 321.361C415.287 319.727 417.847 317.347 422.763 308.753L423.604 180.148L426.837 170.532C428.616 165.244 432.114 157.468 434.602 153.249C437.102 149.03 442.703 142.275 447.054 138.225C451.549 134.042 458.809 128.934 463.881 126.374C468.784 123.898 476.044 121.061 480.01 120.052C483.977 119.054 491.825 118.237 497.438 118.237C503.051 118.237 510.9 119.054 514.866 120.052C518.832 121.061 526.537 124.042 531.993 126.674C539.638 130.376 543.868 133.465 550.431 140.184C556.2 146.085 560.419 151.818 563.472 157.912C565.96 162.876 568.965 171.254 570.142 176.542C571.765 183.742 572.126 188.874 571.609 196.975C571.224 202.924 569.878 210.773 568.604 214.403C567.33 218.032 565.191 223.177 563.832 225.821C562.486 228.465 559.025 233.79 556.152 237.66C552.234 242.936 540.671 252.864 510.058 277.227C487.583 295.112 465.78 312.503 461.621 315.869C456.657 319.871 453.172 323.837 451.525 327.383C449.566 331.578 449.181 334.006 449.806 338.2C450.251 341.181 451.849 345.508 453.364 347.816C454.878 350.123 458.52 353.236 461.453 354.715C464.385 356.193 468.821 357.407 471.296 357.419C473.772 357.419 477.282 356.758 479.097 355.929C480.912 355.099 503.76 337.431 529.878 316.662C565.623 288.249 579.445 277.948 585.779 275.051C590.407 272.924 597.174 270.508 600.803 269.667C604.433 268.826 612.282 268.164 618.231 268.188C626.452 268.237 631.356 268.994 638.664 271.338C643.952 273.044 651.717 276.482 655.924 278.97C660.13 281.47 666.921 287.023 671.008 291.325C675.599 296.169 680.118 302.563 682.871 308.152C685.323 313.116 688.195 320.676 689.277 324.979C690.743 330.821 691.08 336.121 690.623 346.013C690.19 355.532 689.241 361.421 687.246 367.046C685.719 371.349 681.945 378.645 678.856 383.272C675.767 387.9 670.335 394.198 666.777 397.263C663.207 400.34 656.789 404.751 652.486 407.094C648.183 409.426 641.428 412.299 637.462 413.465C632.558 414.919 626.224 415.592 617.63 415.592C606.08 415.592 601.404 414.751 562.342 405.652C538.88 400.183 512.51 394.138 503.748 392.203C490.671 389.306 486.957 388.897 483.015 389.883C480.371 390.544 476.284 392.84 473.929 394.991C471.585 397.143 469.073 400.796 468.364 403.104C467.643 405.412 467.138 409.474 467.222 412.118C467.306 414.763 468.592 419.066 470.083 421.674C471.573 424.282 474.698 427.503 477.006 428.837C479.482 430.256 505.371 436.818 540.106 444.811C581.416 454.33 601.152 459.414 606.212 461.83C610.178 463.729 616.597 467.647 620.467 470.544C624.337 473.453 629.962 479.066 632.955 483.032C635.96 486.998 640.022 493.753 641.981 498.056C643.94 502.359 646.356 509.654 647.33 514.282C648.496 519.763 648.904 526.253 648.52 532.912C648.135 539.462 646.801 546.361 644.782 552.142C643.063 557.106 639.902 564.017 637.75 567.527C635.611 571.025 630.876 576.914 627.246 580.616C623.616 584.318 617.931 589.053 614.626 591.145C611.32 593.224 605.635 596.109 602.005 597.551C598.376 598.981 592.967 600.7 589.986 601.361C587.005 602.022 580.251 602.587 574.962 602.611C569.037 602.635 561.657 601.698 555.731 600.171C550.443 598.813 542.871 595.976 538.905 593.861C534.734 591.649 527.763 586.097 522.378 580.7C513.436 571.746 512.558 570.339 500.587 545.832C493.712 531.782 481.765 507.046 474.037 490.844C466.297 474.642 458.797 458.993 457.366 456.061C455.936 453.116 451.789 447.491 448.16 443.537C444.53 439.594 438.845 434.643 435.539 432.527C432.234 430.424 426.285 427.503 422.318 426.049C418.352 424.582 411.056 423.092 406.092 422.731C399.842 422.287 394.494 422.695 388.664 424.078C384.037 425.183 376.513 428.08 371.958 430.52C366.561 433.405 361.104 437.707 356.333 442.828C349.866 449.787 347.39 454.09 335.251 479.486C327.691 495.315 314.518 522.599 305.972 540.123C290.648 571.577 290.335 572.082 281.261 581.025C276.129 586.097 268.905 591.758 264.867 593.897C260.9 595.988 253.328 598.813 248.04 600.171C242.15 601.685 234.698 602.635 228.809 602.623C223.52 602.599 215.816 601.782 211.682 600.808C207.547 599.823 200.251 597.046 195.456 594.642C189.999 591.902 183.665 587.299 178.509 582.323C173.989 577.948 168.208 570.868 165.672 566.565C163.136 562.263 159.975 555.508 158.653 551.541C157.319 547.575 155.864 540.003 155.408 534.714C154.795 527.647 155.119 522.395 156.622 514.883C157.751 509.27 160.203 501.421 162.078 497.455C163.941 493.489 168.04 486.998 171.189 483.032C174.326 479.066 179.386 473.765 182.415 471.265C185.456 468.753 191.73 464.835 196.357 462.551C202.823 459.354 213.821 456.289 243.833 449.33C265.311 444.342 291.549 438.32 302.126 435.965C312.703 433.597 323.388 430.652 325.864 429.402C328.34 428.164 331.393 425.652 332.643 423.837C333.893 422.022 335.564 418.368 336.357 415.724C337.499 411.962 337.499 409.739 336.357 405.508C335.467 402.215 333.196 398.393 330.527 395.736C327.943 393.14 324.097 390.82 321.056 390.027C316.357 388.789 311.225 389.751 257.355 401.974C225.131 409.282 195.516 415.568 191.549 415.953C187.583 416.325 180.275 415.965 175.323 415.147C170.372 414.33 162.523 412.094 157.896 410.183C153.268 408.26 146.441 404.402 142.727 401.59C139.013 398.789 133.412 393.513 130.299 389.883C127.186 386.253 122.787 379.619 120.528 375.159C118.28 370.7 115.564 363.393 114.494 358.934C113.088 353.02 112.727 347.395 113.172 338.2C113.605 329.126 114.566 323.381 116.61 317.768C118.172 313.465 121.345 306.794 123.653 302.924C125.961 299.066 131.501 292.431 135.961 288.2C141.634 282.828 147.054 279.102 153.989 275.833C159.446 273.273 166.61 270.508 169.915 269.715C173.22 268.91 181.201 268.309 187.643 268.369C196.597 268.465 201.561 269.198 208.677 271.482C213.797 273.128 220.696 276.049 224.001 277.984C227.307 279.907 238.689 288.429 249.29 296.926C259.891 305.412 280.179 321.638 294.362 332.984C308.544 344.33 322.186 354.474 324.662 355.52C327.138 356.578 331.056 357.431 333.376 357.431C335.696 357.431 339.746 356.349 342.39 355.027C345.035 353.705 348.568 350.592 350.251 348.116C351.934 345.64 353.64 341.181 354.037 338.2C354.59 334.09 354.169 331.494 352.246 327.383C350.6 323.849 347.102 319.859 342.15 315.845C337.991 312.479 317.006 295.712 295.54 278.585C274.073 261.47 254.326 245.148 251.669 242.335C249.013 239.523 244.782 233.838 242.282 229.715C239.782 225.592 236.633 218.705 235.299 214.403C233.953 210.1 232.571 201.999 232.222 196.374C231.778 189.427 232.174 183.273 233.46 177.143C234.53 172.071 237.607 163.693 240.492 157.996C244.242 150.629 247.919 145.617 254.049 139.547C260.131 133.537 265.131 129.919 272.078 126.542Z" fill="white"/>
<path d="M375.299 496.253C385.035 476.157 392.847 461.505 394.71 459.895C396.501 458.344 399.458 457.179 401.657 457.155C403.881 457.13 406.97 458.26 409.001 459.859C411.008 461.433 414.422 466.698 416.982 472.215C419.446 477.503 426.982 493.188 433.724 507.07C440.467 520.952 451.885 544.618 459.097 559.654C466.296 574.69 473.003 590.375 473.989 594.51C474.962 598.645 475.78 606.625 475.792 612.238C475.804 617.851 474.998 625.7 473.989 629.666C472.979 633.633 470.179 640.94 467.751 645.892C464.518 652.515 460.936 657.298 454.253 663.933C449.025 669.113 442.09 674.57 437.943 676.733C433.977 678.813 426.946 681.661 422.318 683.056C416.092 684.943 410.768 685.592 401.886 685.568C395.275 685.544 386.886 684.738 383.256 683.765C379.626 682.803 372.583 680.003 367.631 677.551C361.08 674.318 356.14 670.616 349.59 664.005C343.172 657.539 339.253 652.298 336.068 645.892C333.604 640.94 330.78 633.633 329.77 629.666C328.773 625.7 327.967 617.851 327.979 612.238C327.991 606.625 328.809 598.645 329.782 594.51C330.768 590.375 337.751 574.15 345.287 558.452C352.835 542.755 366.345 514.763 375.299 496.253Z" fill="white"/>
</svg>
