<svg width="1081" height="1020" viewBox="0 0 1081 1020" fill="none" xmlns="http://www.w3.org/2000/svg">
<rect width="1081" height="1020" rx="240" fill="#1C1C1C"/>
<path d="M432.486 207.757C436.886 205.617 442.966 203.217 445.986 202.427C449.006 201.637 455.426 200.957 460.236 200.927C465.046 200.887 471.346 201.347 474.236 201.947C477.126 202.547 483.086 204.757 487.486 206.867C492.366 209.197 497.986 212.967 501.886 216.527C505.406 219.727 509.956 224.837 511.986 227.857C514.016 230.877 516.836 236.287 518.236 239.857C519.646 243.437 521.296 249.617 521.896 253.607C522.566 258.087 522.996 279.667 523.026 359.357L525.506 363.607C527.186 366.477 529.366 368.497 532.236 369.847C534.576 370.937 538.286 371.827 540.486 371.827C542.686 371.827 546.396 370.937 548.736 369.847C551.636 368.487 553.766 366.507 557.856 359.357L558.556 252.357L561.246 244.357C562.726 239.957 565.636 233.487 567.706 229.977C569.786 226.467 574.446 220.847 578.066 217.477C581.806 213.997 587.846 209.747 592.066 207.617C596.146 205.557 602.186 203.197 605.486 202.357C608.786 201.527 615.316 200.847 619.986 200.847C624.656 200.847 631.186 201.527 634.486 202.357C637.786 203.197 644.196 205.677 648.736 207.867C655.096 210.947 658.616 213.517 664.076 219.107C668.876 224.017 672.386 228.787 674.926 233.857C676.996 237.987 679.496 244.957 680.476 249.357C681.826 255.347 682.126 259.617 681.696 266.357C681.376 271.307 680.256 277.837 679.196 280.857C678.136 283.877 676.356 288.157 675.226 290.357C674.106 292.557 671.226 296.987 668.836 300.207C665.576 304.597 655.956 312.857 630.486 333.127C611.786 348.007 593.646 362.477 590.186 365.277C586.056 368.607 583.156 371.907 581.786 374.857C580.156 378.347 579.836 380.367 580.356 383.857C580.726 386.337 582.056 389.937 583.316 391.857C584.576 393.777 587.606 396.367 590.046 397.597C592.486 398.827 596.176 399.837 598.236 399.847C600.296 399.847 603.216 399.297 604.726 398.607C606.236 397.917 625.246 383.217 646.976 365.937C676.716 342.297 688.216 333.727 693.486 331.317C697.336 329.547 702.966 327.537 705.986 326.837C709.006 326.137 715.536 325.587 720.486 325.607C727.326 325.647 731.406 326.277 737.486 328.227C741.886 329.647 748.346 332.507 751.846 334.577C755.346 336.657 760.996 341.277 764.396 344.857C768.216 348.887 771.976 354.207 774.266 358.857C776.306 362.987 778.696 369.277 779.596 372.857C780.816 377.717 781.096 382.127 780.716 390.357C780.356 398.277 779.566 403.177 777.906 407.857C776.636 411.437 773.496 417.507 770.926 421.357C768.356 425.207 763.836 430.447 760.876 432.997C757.906 435.557 752.566 439.227 748.986 441.177C745.406 443.117 739.786 445.507 736.486 446.477C732.406 447.687 727.136 448.247 719.986 448.247C710.376 448.247 706.486 447.547 673.986 439.977C654.466 435.427 632.526 430.397 625.236 428.787C614.356 426.377 611.266 426.037 607.986 426.857C605.786 427.407 602.386 429.317 600.426 431.107C598.476 432.897 596.386 435.937 595.796 437.857C595.196 439.777 594.776 443.157 594.846 445.357C594.916 447.557 595.986 451.137 597.226 453.307C598.466 455.477 601.066 458.157 602.986 459.267C605.046 460.447 626.586 465.907 655.486 472.557C689.856 480.477 706.276 484.707 710.486 486.717C713.786 488.297 719.126 491.557 722.346 493.967C725.566 496.387 730.246 501.057 732.736 504.357C735.236 507.657 738.616 513.277 740.246 516.857C741.876 520.437 743.886 526.507 744.696 530.357C745.666 534.917 746.006 540.317 745.686 545.857C745.366 551.307 744.256 557.047 742.576 561.857C741.146 565.987 738.516 571.737 736.726 574.657C734.946 577.567 731.006 582.467 727.986 585.547C724.966 588.627 720.236 592.567 717.486 594.307C714.736 596.037 710.006 598.437 706.986 599.637C703.966 600.827 699.466 602.257 696.986 602.807C694.506 603.357 688.886 603.827 684.486 603.847C679.556 603.867 673.416 603.087 668.486 601.817C664.086 600.687 657.786 598.327 654.486 596.567C651.016 594.727 645.216 590.107 640.736 585.617C633.296 578.167 632.566 576.997 622.606 556.607C616.886 544.917 606.946 524.337 600.516 510.857C594.076 497.377 587.836 484.357 586.646 481.917C585.456 479.467 582.006 474.787 578.986 471.497C575.966 468.217 571.236 464.097 568.486 462.337C565.736 460.587 560.786 458.157 557.486 456.947C554.186 455.727 548.116 454.487 543.986 454.187C538.786 453.817 534.336 454.157 529.486 455.307C525.636 456.227 519.376 458.637 515.586 460.667C511.096 463.067 506.556 466.647 502.586 470.907C497.206 476.697 495.146 480.277 485.046 501.407C478.756 514.577 467.796 537.277 460.686 551.857C447.936 578.027 447.676 578.447 440.126 585.887C435.856 590.107 429.846 594.817 426.486 596.597C423.186 598.337 416.886 600.687 412.486 601.817C407.586 603.077 401.386 603.867 396.486 603.857C392.086 603.837 385.676 603.157 382.236 602.347C378.796 601.527 372.726 599.217 368.736 597.217C364.196 594.937 358.926 591.107 354.636 586.967C350.876 583.327 346.066 577.437 343.956 573.857C341.846 570.277 339.216 564.657 338.116 561.357C337.006 558.057 335.796 551.757 335.416 547.357C334.906 541.477 335.176 537.107 336.426 530.857C337.366 526.187 339.406 519.657 340.966 516.357C342.516 513.057 345.926 507.657 348.546 504.357C351.156 501.057 355.366 496.647 357.886 494.567C360.416 492.477 365.636 489.217 369.486 487.317C374.866 484.657 384.016 482.107 408.986 476.317C426.856 472.167 448.686 467.157 457.486 465.197C466.286 463.227 475.176 460.777 477.236 459.737C479.296 458.707 481.836 456.617 482.876 455.107C483.916 453.597 485.306 450.557 485.966 448.357C486.916 445.227 486.916 443.377 485.966 439.857C485.226 437.117 483.336 433.937 481.116 431.727C478.966 429.567 475.766 427.637 473.236 426.977C469.326 425.947 465.056 426.747 420.236 436.917C393.426 442.997 368.786 448.227 365.486 448.547C362.186 448.857 356.106 448.557 351.986 447.877C347.866 447.197 341.336 445.337 337.486 443.747C333.636 442.147 327.956 438.937 324.866 436.597C321.776 434.267 317.116 429.877 314.526 426.857C311.936 423.837 308.276 418.317 306.396 414.607C304.526 410.897 302.266 404.817 301.376 401.107C300.206 396.187 299.906 391.507 300.276 383.857C300.636 376.307 301.436 371.527 303.136 366.857C304.436 363.277 307.076 357.727 308.996 354.507C310.916 351.297 315.526 345.777 319.236 342.257C323.956 337.787 328.466 334.687 334.236 331.967C338.776 329.837 344.736 327.537 347.486 326.877C350.236 326.207 356.876 325.707 362.236 325.757C369.686 325.837 373.816 326.447 379.736 328.347C383.996 329.717 389.736 332.147 392.486 333.757C395.236 335.357 404.706 342.447 413.526 349.517C422.346 356.577 439.226 370.077 451.026 379.517C462.826 388.957 474.176 397.397 476.236 398.267C478.296 399.147 481.556 399.857 483.486 399.857C485.416 399.857 488.786 398.957 490.986 397.857C493.186 396.757 496.126 394.167 497.526 392.107C498.926 390.047 500.346 386.337 500.676 383.857C501.136 380.437 500.786 378.277 499.186 374.857C497.816 371.917 494.906 368.597 490.786 365.257C487.326 362.457 469.866 348.507 452.006 334.257C434.146 320.017 417.716 306.437 415.506 304.097C413.296 301.757 409.776 297.027 407.696 293.597C405.616 290.167 402.996 284.437 401.886 280.857C400.766 277.277 399.616 270.537 399.326 265.857C398.956 260.077 399.286 254.957 400.356 249.857C401.246 245.637 403.806 238.667 406.206 233.927C409.326 227.797 412.386 223.627 417.486 218.577C422.546 213.577 426.706 210.567 432.486 207.757Z" fill="url(#paint0_linear_978_33)"/>
<path d="M518.366 515.357C526.466 498.637 532.966 486.447 534.516 485.107C536.006 483.817 538.466 482.847 540.296 482.827C542.146 482.807 544.716 483.747 546.406 485.077C548.076 486.387 550.916 490.767 553.046 495.357C555.096 499.757 561.366 512.807 566.976 524.357C572.586 535.907 582.086 555.597 588.086 568.107C594.076 580.617 599.656 593.667 600.476 597.107C601.286 600.547 601.966 607.187 601.976 611.857C601.986 616.527 601.316 623.057 600.476 626.357C599.636 629.657 597.306 635.737 595.286 639.857C592.596 645.367 589.616 649.347 584.056 654.867C579.706 659.177 573.936 663.717 570.486 665.517C567.186 667.247 561.336 669.617 557.486 670.777C552.306 672.347 547.876 672.887 540.486 672.867C534.986 672.847 528.006 672.177 524.986 671.367C521.966 670.567 516.106 668.237 511.986 666.197C506.536 663.507 502.426 660.427 496.976 654.927C491.636 649.547 488.376 645.187 485.726 639.857C483.676 635.737 481.326 629.657 480.486 626.357C479.656 623.057 478.986 616.527 478.996 611.857C479.006 607.187 479.686 600.547 480.496 597.107C481.316 593.667 487.126 580.167 493.396 567.107C499.676 554.047 510.916 530.757 518.366 515.357Z" fill="url(#paint1_linear_978_33)"/>
<path d="M296.85 845.849C296.058 846.086 294.792 846.323 293.051 846.561C291.39 846.798 289.649 846.917 287.829 846.917C286.088 846.917 284.506 846.798 283.081 846.561C281.736 846.323 280.589 845.849 279.639 845.136C278.69 844.424 277.938 843.475 277.384 842.288C276.909 841.022 276.672 839.4 276.672 837.421V801.814C276.672 799.994 276.988 798.451 277.622 797.185C278.334 795.84 279.323 794.653 280.589 793.624C281.855 792.596 283.398 791.686 285.218 790.894C287.117 790.024 289.135 789.272 291.271 788.639C293.407 788.006 295.623 787.531 297.918 787.215C300.212 786.819 302.507 786.621 304.802 786.621C308.6 786.621 311.607 787.373 313.822 788.877C316.038 790.301 317.146 792.675 317.146 795.998C317.146 797.106 316.988 798.214 316.671 799.321C316.355 800.35 315.959 801.3 315.484 802.17C313.822 802.17 312.121 802.249 310.38 802.407C308.64 802.566 306.938 802.803 305.277 803.12C303.615 803.436 302.032 803.792 300.529 804.188C299.105 804.504 297.878 804.9 296.85 805.375V845.849ZM382.97 817.125C382.97 822.031 382.218 826.423 380.715 830.3C379.211 834.098 377.075 837.303 374.305 839.914C371.615 842.525 368.371 844.503 364.572 845.849C360.774 847.194 356.541 847.866 351.872 847.866C347.204 847.866 342.971 847.154 339.172 845.73C335.374 844.306 332.09 842.288 329.321 839.677C326.631 836.986 324.534 833.742 323.03 829.944C321.527 826.146 320.775 821.873 320.775 817.125C320.775 812.457 321.527 808.223 323.03 804.425C324.534 800.627 326.631 797.422 329.321 794.811C332.09 792.121 335.374 790.063 339.172 788.639C342.971 787.215 347.204 786.503 351.872 786.503C356.541 786.503 360.774 787.254 364.572 788.758C368.371 790.182 371.615 792.24 374.305 794.93C377.075 797.541 379.211 800.746 380.715 804.544C382.218 808.342 382.97 812.536 382.97 817.125ZM341.428 817.125C341.428 821.952 342.338 825.671 344.157 828.282C346.057 830.814 348.668 832.08 351.991 832.08C355.314 832.08 357.847 830.775 359.587 828.164C361.407 825.552 362.317 821.873 362.317 817.125C362.317 812.378 361.407 808.738 359.587 806.206C357.767 803.594 355.196 802.289 351.872 802.289C348.549 802.289 345.977 803.594 344.157 806.206C342.338 808.738 341.428 812.378 341.428 817.125ZM420.469 786.503C423.713 786.503 426.878 786.978 429.964 787.927C433.129 788.797 435.859 790.143 438.154 791.963C440.528 790.38 443.178 789.074 446.106 788.046C449.113 787.017 452.713 786.503 456.907 786.503C459.914 786.503 462.842 786.898 465.69 787.69C468.618 788.481 471.19 789.747 473.405 791.488C475.7 793.149 477.52 795.405 478.865 798.253C480.21 801.023 480.883 804.425 480.883 808.461V845.849C480.092 846.086 478.826 846.323 477.085 846.561C475.423 846.798 473.682 846.917 471.862 846.917C470.122 846.917 468.539 846.798 467.115 846.561C465.769 846.323 464.622 845.849 463.673 845.136C462.723 844.424 461.971 843.475 461.417 842.288C460.943 841.022 460.705 839.4 460.705 837.421V809.054C460.705 806.68 460.033 804.979 458.688 803.95C457.342 802.843 455.522 802.289 453.228 802.289C452.12 802.289 450.933 802.566 449.667 803.12C448.401 803.594 447.451 804.109 446.818 804.663C446.897 804.979 446.937 805.296 446.937 805.612C446.937 805.849 446.937 806.087 446.937 806.324V845.849C446.067 846.086 444.761 846.323 443.02 846.561C441.359 846.798 439.657 846.917 437.916 846.917C436.176 846.917 434.593 846.798 433.169 846.561C431.824 846.323 430.676 845.849 429.727 845.136C428.777 844.424 428.026 843.475 427.472 842.288C426.997 841.022 426.759 839.4 426.759 837.421V809.054C426.759 806.68 426.008 804.979 424.504 803.95C423.08 802.843 421.339 802.289 419.282 802.289C417.858 802.289 416.631 802.526 415.602 803.001C414.574 803.397 413.703 803.792 412.991 804.188V845.849C412.2 846.086 410.934 846.323 409.193 846.561C407.531 846.798 405.791 846.917 403.971 846.917C402.23 846.917 400.647 846.798 399.223 846.561C397.878 846.323 396.73 845.849 395.781 845.136C394.831 844.424 394.08 843.475 393.526 842.288C393.051 841.022 392.814 839.4 392.814 837.421V801.577C392.814 799.44 393.249 797.739 394.119 796.473C395.069 795.207 396.335 794.02 397.917 792.912C400.608 791.013 403.931 789.47 407.887 788.283C411.923 787.096 416.117 786.503 420.469 786.503ZM517.879 833.149C519.225 833.149 520.688 833.03 522.271 832.793C523.933 832.476 525.159 832.08 525.95 831.606V822.11L517.405 822.822C515.189 822.981 513.369 823.455 511.945 824.247C510.521 825.038 509.808 826.225 509.808 827.807C509.808 829.39 510.402 830.696 511.589 831.724C512.855 832.674 514.952 833.149 517.879 833.149ZM516.93 786.503C521.203 786.503 525.08 786.938 528.562 787.808C532.122 788.679 535.129 790.024 537.582 791.844C540.114 793.585 542.053 795.84 543.398 798.609C544.743 801.3 545.416 804.504 545.416 808.223V834.81C545.416 836.868 544.822 838.569 543.636 839.914C542.528 841.18 541.183 842.288 539.6 843.237C534.457 846.323 527.217 847.866 517.879 847.866C513.686 847.866 509.888 847.471 506.485 846.679C503.162 845.888 500.274 844.701 497.821 843.119C495.447 841.536 493.587 839.518 492.242 837.065C490.976 834.612 490.343 831.764 490.343 828.52C490.343 823.06 491.965 818.866 495.209 815.938C498.454 813.011 503.478 811.191 510.283 810.478L525.832 808.817V807.986C525.832 805.691 524.803 804.069 522.746 803.12C520.768 802.091 517.879 801.577 514.081 801.577C511.074 801.577 508.147 801.893 505.298 802.526C502.45 803.159 499.878 803.95 497.583 804.9C496.555 804.188 495.684 803.12 494.972 801.695C494.26 800.192 493.904 798.649 493.904 797.066C493.904 795.009 494.378 793.387 495.328 792.2C496.357 790.934 497.9 789.866 499.957 788.995C502.252 788.125 504.942 787.492 508.028 787.096C511.193 786.701 514.16 786.503 516.93 786.503ZM606.417 828.757C606.417 834.771 604.162 839.479 599.652 842.881C595.141 846.284 588.495 847.985 579.711 847.985C576.388 847.985 573.302 847.748 570.453 847.273C567.605 846.798 565.152 846.086 563.094 845.136C561.116 844.108 559.534 842.842 558.347 841.338C557.239 839.835 556.685 838.055 556.685 835.997C556.685 834.098 557.081 832.516 557.872 831.25C558.663 829.904 559.613 828.797 560.721 827.926C563.015 829.192 565.627 830.34 568.554 831.368C571.561 832.318 575.003 832.793 578.88 832.793C581.333 832.793 583.193 832.436 584.459 831.724C585.804 831.012 586.477 830.063 586.477 828.876C586.477 827.768 586.002 826.897 585.052 826.264C584.103 825.631 582.52 825.117 580.305 824.721L576.744 824.009C569.86 822.664 564.717 820.567 561.314 817.719C557.991 814.791 556.329 810.637 556.329 805.256C556.329 802.328 556.962 799.678 558.228 797.304C559.494 794.93 561.275 792.952 563.569 791.369C565.864 789.787 568.594 788.56 571.759 787.69C575.003 786.819 578.564 786.384 582.441 786.384C585.369 786.384 588.099 786.621 590.631 787.096C593.242 787.492 595.497 788.125 597.396 788.995C599.295 789.866 600.799 791.013 601.907 792.437C603.014 793.783 603.568 795.405 603.568 797.304C603.568 799.124 603.212 800.706 602.5 802.051C601.867 803.317 601.036 804.386 600.008 805.256C599.375 804.86 598.425 804.465 597.159 804.069C595.893 803.594 594.508 803.199 593.005 802.882C591.501 802.487 589.958 802.17 588.376 801.933C586.872 801.695 585.488 801.577 584.222 801.577C581.61 801.577 579.593 801.893 578.168 802.526C576.744 803.08 576.032 803.99 576.032 805.256C576.032 806.126 576.428 806.839 577.219 807.392C578.01 807.946 579.514 808.461 581.729 808.935L585.409 809.766C593.005 811.507 598.385 813.921 601.551 817.007C604.795 820.013 606.417 823.93 606.417 828.757ZM673.144 845.849C672.353 846.086 671.087 846.323 669.346 846.561C667.684 846.798 665.943 846.917 664.123 846.917C662.383 846.917 660.8 846.798 659.376 846.561C658.031 846.323 656.883 845.849 655.934 845.136C654.984 844.424 654.232 843.475 653.679 842.288C653.204 841.022 652.966 839.4 652.966 837.421V811.072C652.966 807.828 652.136 805.573 650.474 804.307C648.891 802.961 646.913 802.289 644.539 802.289C642.957 802.289 641.453 802.487 640.029 802.882C638.605 803.278 637.457 803.753 636.587 804.307V845.849C635.796 846.086 634.53 846.323 632.789 846.561C631.127 846.798 629.386 846.917 627.566 846.917C625.826 846.917 624.243 846.798 622.819 846.561C621.473 846.323 620.326 845.849 619.377 845.136C618.427 844.424 617.675 843.475 617.121 842.288C616.647 841.022 616.409 839.4 616.409 837.421V768.58C617.28 768.422 618.546 768.224 620.207 767.987C621.948 767.67 623.689 767.512 625.43 767.512C627.171 767.512 628.714 767.631 630.059 767.868C631.483 768.106 632.67 768.58 633.62 769.292C634.569 770.005 635.281 770.994 635.756 772.26C636.31 773.447 636.587 775.029 636.587 777.007V788.639C637.616 788.244 639.159 787.808 641.216 787.334C643.352 786.78 645.687 786.503 648.219 786.503C656.052 786.503 662.145 788.481 666.497 792.437C670.928 796.315 673.144 802.13 673.144 809.885V845.849ZM741.98 835.522C741.585 839.241 740.477 842.09 738.657 844.068C736.916 846.046 734.345 847.036 730.942 847.036C728.41 847.036 726.155 846.442 724.177 845.255C722.199 843.989 720.062 841.892 717.767 838.964L706.017 824.247V845.849C705.146 846.007 703.841 846.205 702.1 846.442C700.438 846.759 698.737 846.917 696.996 846.917C695.256 846.917 693.673 846.798 692.249 846.561C690.903 846.323 689.756 845.849 688.807 845.136C687.857 844.424 687.105 843.475 686.551 842.288C686.077 841.022 685.839 839.4 685.839 837.421V768.699C686.71 768.462 687.976 768.224 689.637 767.987C691.378 767.67 693.119 767.512 694.86 767.512C696.601 767.512 698.144 767.631 699.489 767.868C700.913 768.106 702.1 768.58 703.05 769.292C703.999 770.005 704.711 770.994 705.186 772.26C705.74 773.447 706.017 775.029 706.017 777.007V808.342L726.432 787.452C730.547 787.452 733.83 788.362 736.283 790.182C738.815 792.002 740.081 794.297 740.081 797.066C740.081 798.253 739.884 799.361 739.488 800.39C739.092 801.339 738.459 802.328 737.589 803.357C736.798 804.386 735.729 805.493 734.384 806.68C733.118 807.788 731.615 809.094 729.874 810.597L722.99 816.532L741.98 835.522ZM776.358 833.149C777.704 833.149 779.167 833.03 780.75 832.793C782.412 832.476 783.638 832.08 784.429 831.606V822.11L775.884 822.822C773.668 822.981 771.848 823.455 770.424 824.247C769 825.038 768.287 826.225 768.287 827.807C768.287 829.39 768.881 830.696 770.068 831.724C771.334 832.674 773.431 833.149 776.358 833.149ZM775.409 786.503C779.682 786.503 783.559 786.938 787.041 787.808C790.601 788.679 793.608 790.024 796.061 791.844C798.593 793.585 800.532 795.84 801.877 798.609C803.222 801.3 803.895 804.504 803.895 808.223V834.81C803.895 836.868 803.301 838.569 802.115 839.914C801.007 841.18 799.662 842.288 798.079 843.237C792.936 846.323 785.695 847.866 776.358 847.866C772.165 847.866 768.366 847.471 764.964 846.679C761.641 845.888 758.752 844.701 756.3 843.119C753.926 841.536 752.066 839.518 750.721 837.065C749.455 834.612 748.822 831.764 748.822 828.52C748.822 823.06 750.444 818.866 753.688 815.938C756.933 813.011 761.957 811.191 768.762 810.478L784.311 808.817V807.986C784.311 805.691 783.282 804.069 781.225 803.12C779.247 802.091 776.358 801.577 772.56 801.577C769.553 801.577 766.626 801.893 763.777 802.526C760.928 803.159 758.357 803.95 756.062 804.9C755.033 804.188 754.163 803.12 753.451 801.695C752.739 800.192 752.383 798.649 752.383 797.066C752.383 795.009 752.857 793.387 753.807 792.2C754.836 790.934 756.379 789.866 758.436 788.995C760.731 788.125 763.421 787.492 766.507 787.096C769.672 786.701 772.639 786.503 775.409 786.503Z" fill="url(#paint2_linear_978_33)"/>
<defs>
<linearGradient id="paint0_linear_978_33" x1="300.126" y1="200.847" x2="830.248" y2="608.689" gradientUnits="userSpaceOnUse">
<stop stop-color="#8806C0"/>
<stop offset="1" stop-color="#40035A"/>
</linearGradient>
<linearGradient id="paint1_linear_978_33" x1="300.126" y1="200.847" x2="830.248" y2="608.689" gradientUnits="userSpaceOnUse">
<stop stop-color="#8806C0"/>
<stop offset="1" stop-color="#40035A"/>
</linearGradient>
<linearGradient id="paint2_linear_978_33" x1="270.5" y1="715.967" x2="454.217" y2="1090.66" gradientUnits="userSpaceOnUse">
<stop stop-color="#8806C0"/>
<stop offset="1" stop-color="#40035A"/>
</linearGradient>
</defs>
</svg>
